<?xml version="1.0" encoding="UTF-8"?>
<!DOCTYPE svg PUBLIC "-//W3C//DTD SVG 1.1//EN" "http://www.w3.org/Graphics/SVG/1.1/DTD/svg11.dtd">
<svg xmlns="http://www.w3.org/2000/svg" version="1.1" width="512px" height="512px" style="shape-rendering:geometricPrecision; text-rendering:geometricPrecision; image-rendering:optimizeQuality; fill-rule:evenodd; clip-rule:evenodd" xmlns:xlink="http://www.w3.org/1999/xlink">
<g><path style="opacity:0.973" fill="#010000" d="M 511.5,208.5 C 511.5,218.833 511.5,229.167 511.5,239.5C 510.154,248.555 507.987,257.555 505,266.5C 499.965,271.232 494.465,271.732 488.5,268C 487.696,266.229 486.529,264.729 485,263.5C 450.36,333.81 398.86,388.31 330.5,427C 286.783,450.128 240.45,465.461 191.5,473C 143.87,482.135 95.8705,485.135 47.5,482C 38.3714,481.468 29.3714,480.134 20.5,478C 9.39508,473.255 2.39508,465.088 -0.5,453.5C -0.5,447.5 -0.5,441.5 -0.5,435.5C 2.70265,426.455 8.36932,419.289 16.5,414C 33.1501,409.335 49.8167,404.669 66.5,400C 113.778,386.292 154.944,362.459 190,328.5C 200.154,317.349 209.154,305.349 217,292.5C 238.044,251.377 258.711,210.044 279,168.5C 283.406,161.424 288.572,154.924 294.5,149C 283.691,148.533 279.191,143.033 281,132.5C 315.069,97.9241 356.236,84.7574 404.5,93C 412.312,94.8684 419.978,96.8684 427.5,99C 433.13,91.3549 437.963,83.1883 442,74.5C 445.979,63.2453 449.646,51.9119 453,40.5C 461.765,28.7609 473.265,24.9276 487.5,29C 501.86,35.5464 508.026,46.713 506,62.5C 501.132,88.0615 490.966,111.228 475.5,132C 495.466,153.764 507.466,179.264 511.5,208.5 Z"/></g>
<g><path style="opacity:1" fill="#335c00" d="M 473.5,48.5 C 484.153,48.0056 487.987,53.0056 485,63.5C 480.258,83.647 471.758,101.98 459.5,118.5C 454.697,115.529 450.03,112.362 445.5,109C 458.118,92.163 466.284,73.3297 470,52.5C 471.376,51.2949 472.542,49.9616 473.5,48.5 Z"/></g>
<g><path style="opacity:1" fill="#5f9100" d="M 490.5,211.5 C 490.825,219.352 490.492,227.018 489.5,234.5C 479.422,219.261 468.422,204.761 456.5,191C 435.492,190.833 414.492,190.333 393.5,189.5C 385.376,172.627 377.543,155.627 370,138.5C 368.5,137 367,135.5 365.5,134C 349.457,132.552 333.457,130.886 317.5,129C 345.681,111.027 376.014,106.36 408.5,115C 455.53,130.523 482.863,162.69 490.5,211.5 Z"/></g>
<g><path style="opacity:1" fill="#c81717" d="M 437.5,210.5 C 381.167,327.293 289.834,401.46 163.5,433C 117.962,445.479 71.6286,452.979 24.5,455.5C 19.0067,449.893 18.1734,443.56 22,436.5C 23.8734,434.291 26.04,432.458 28.5,431C 82.028,420.616 131.028,399.949 175.5,369C 201.724,348.783 222.891,324.283 239,295.5C 259.016,255.469 279.016,215.469 299,175.5C 305.833,166 314,157.833 323.5,151C 333.92,150.674 344.253,151.507 354.5,153.5C 362.097,169.791 369.597,186.124 377,202.5C 379.674,209.755 384.841,212.755 392.5,211.5C 407.488,210.644 422.488,210.311 437.5,210.5 Z"/></g>
<g><path style="opacity:1" fill="#ee2424" d="M 325.5,178.5 C 335.264,177.123 341.43,181.123 344,190.5C 345.032,200.64 343.366,210.306 339,219.5C 324.342,246.835 305.842,271.335 283.5,293C 281.5,294.333 279.5,295.667 277.5,297C 267.944,299.447 264.11,295.614 266,285.5C 279.09,251.655 295.09,219.321 314,188.5C 317.435,184.555 321.268,181.222 325.5,178.5 Z"/></g>
<g><path style="opacity:1" fill="#9f1616" d="M 437.5,210.5 C 440.85,210.335 444.183,210.502 447.5,211C 454.212,220.256 461.045,229.423 468,238.5C 467.326,250.863 463.993,262.529 458,273.5C 393.056,379.116 298.556,439.616 174.5,455C 125.995,463.284 77.3287,464.618 28.5,459C 26.6763,458.34 25.343,457.173 24.5,455.5C 71.6286,452.979 117.962,445.479 163.5,433C 289.834,401.46 381.167,327.293 437.5,210.5 Z"/></g>
<g><path style="opacity:1" fill="#436601" d="M 490.5,211.5 C 491.82,219.343 491.82,227.343 490.5,235.5C 489.893,235.376 489.56,235.043 489.5,234.5C 490.492,227.018 490.825,219.352 490.5,211.5 Z"/></g>
</svg>
