<?xml version="1.0" encoding="UTF-8"?>
<!DOCTYPE svg PUBLIC "-//W3C//DTD SVG 1.1//EN" "http://www.w3.org/Graphics/SVG/1.1/DTD/svg11.dtd">
<svg xmlns="http://www.w3.org/2000/svg" version="1.1" width="512px" height="512px" style="shape-rendering:geometricPrecision; text-rendering:geometricPrecision; image-rendering:optimizeQuality; fill-rule:evenodd; clip-rule:evenodd" xmlns:xlink="http://www.w3.org/1999/xlink">
<g><path style="opacity:0.969" fill="#010101" d="M 511.5,49.5 C 511.5,54.5 511.5,59.5 511.5,64.5C 508.173,72.9425 504.34,81.2759 500,89.5C 497.409,93.0482 493.909,94.3815 489.5,93.5C 485.912,90.2622 484.745,86.2622 486,81.5C 489.59,74.6522 492.923,67.6522 496,60.5C 496.519,47.6854 490.352,41.5188 477.5,42C 473.76,43.2899 470.593,45.4565 468,48.5C 449.633,88.2566 427.966,125.923 403,161.5C 402.251,162.635 402.417,163.635 403.5,164.5C 412.113,168.721 419.946,174.054 427,180.5C 443.584,157.01 458.917,132.677 473,107.5C 476.243,105.737 479.743,105.071 483.5,105.5C 485.305,107.449 486.305,109.782 486.5,112.5C 485.565,116.374 484.065,120.04 482,123.5C 468.709,146.59 454.542,169.09 439.5,191C 467.259,223.292 478.759,260.792 474,303.5C 472.545,317.322 469.211,330.655 464,343.5C 457.135,350.099 449.468,351.099 441,346.5C 433.97,356.539 425.803,365.705 416.5,374C 388.682,394.083 359.682,412.416 329.5,429C 325.259,430.188 321.592,429.355 318.5,426.5C 318.071,422.743 318.737,419.243 320.5,416C 351.187,399.331 380.521,380.664 408.5,360C 416.266,353.439 422.599,345.772 427.5,337C 417.497,329.433 409.497,320.266 403.5,309.5C 400.29,300.538 397.29,291.538 394.5,282.5C 375.314,302.506 351.981,310.673 324.5,307C 319.794,305.895 316.627,303.062 315,298.5C 310.12,282.074 310.453,265.741 316,249.5C 318.766,242.801 321.933,236.301 325.5,230C 315.274,229.54 305.274,227.873 295.5,225C 286.518,221.844 277.851,218.011 269.5,213.5C 264.132,217.702 259.632,222.702 256,228.5C 247.481,245.712 239.148,263.046 231,280.5C 209.139,316.697 179.806,345.03 143,365.5C 139.977,365.073 137.477,363.739 135.5,361.5C 135.336,358.813 135.503,356.146 136,353.5C 157.417,339.429 177.084,323.095 195,304.5C 206.973,290.173 216.973,274.506 225,257.5C 231.71,237.566 241.877,219.732 255.5,204C 248.833,196 248.833,188 255.5,180C 274.515,165.994 295.515,155.994 318.5,150C 342.049,145.151 364.883,147.318 387,156.5C 413.291,119.812 435.958,80.8115 455,39.5C 467.235,25.5204 481.735,22.6871 498.5,31C 505.059,35.7061 509.392,41.8727 511.5,49.5 Z"/></g>
<g><path style="opacity:1" fill="#1dd386" d="M 489.5,93.5 C 487.487,97.5266 485.487,101.527 483.5,105.5C 479.743,105.071 476.243,105.737 473,107.5C 458.917,132.677 443.584,157.01 427,180.5C 419.946,174.054 412.113,168.721 403.5,164.5C 402.417,163.635 402.251,162.635 403,161.5C 427.966,125.923 449.633,88.2566 468,48.5C 470.593,45.4565 473.76,43.2899 477.5,42C 490.352,41.5188 496.519,47.6854 496,60.5C 492.923,67.6522 489.59,74.6522 486,81.5C 484.745,86.2622 485.912,90.2622 489.5,93.5 Z"/></g>
<g><path style="opacity:1" fill="#1dd487" d="M 458.5,274.5 C 458.666,279.179 458.499,283.845 458,288.5C 446.495,277.831 438.828,264.831 435,249.5C 433.891,241.18 432.891,232.846 432,224.5C 424.876,235.291 416.043,244.458 405.5,252C 403.292,252.191 401.292,252.691 399.5,253.5C 396.865,254.473 394.865,256.14 393.5,258.5C 381.816,262.279 369.816,263.446 357.5,262C 354.337,260.52 352.504,258.02 352,254.5C 348.082,235.344 351.082,217.344 361,200.5C 364.548,193.901 368.714,187.735 373.5,182C 355.373,185.328 337.707,183.661 320.5,177C 315.777,174.978 311.443,172.478 307.5,169.5C 365.647,155.318 411.147,173.318 444,223.5C 452.725,239.403 457.559,256.403 458.5,274.5 Z"/></g>
<g><path style="opacity:1" fill="#19b773" d="M 307.5,169.5 C 311.443,172.478 315.777,174.978 320.5,177C 337.707,183.661 355.373,185.328 373.5,182C 368.714,187.735 364.548,193.901 361,200.5C 351.082,217.344 348.082,235.344 352,254.5C 352.504,258.02 354.337,260.52 357.5,262C 369.816,263.446 381.816,262.279 393.5,258.5C 380.952,279.783 362.285,291.449 337.5,293.5C 334.283,293.653 331.283,292.986 328.5,291.5C 324.409,272.581 327.576,254.915 338,238.5C 341.611,232.556 345.611,226.889 350,221.5C 350.985,214.982 348.152,211.649 341.5,211.5C 313.266,217.358 288.266,210.858 266.5,192C 279.082,182.599 292.749,175.099 307.5,169.5 Z"/></g>
<g><path style="opacity:1" fill="#fa5757" d="M 403.5,309.5 C 399.028,313.801 394.361,317.968 389.5,322C 347.157,351.681 302.157,377.015 254.5,398C 222.605,410.89 189.605,419.557 155.5,424C 116.876,429.117 79.5425,424.45 43.5,410C 36.705,406.267 29.705,403.101 22.5,400.5C 23.9746,398.59 25.9746,397.424 28.5,397C 60.4683,396.895 91.135,390.561 120.5,378C 123.1,375.016 124.1,371.516 123.5,367.5C 127.5,365.5 131.5,363.5 135.5,361.5C 137.477,363.739 139.977,365.073 143,365.5C 179.806,345.03 209.139,316.697 231,280.5C 239.148,263.046 247.481,245.712 256,228.5C 259.632,222.702 264.132,217.702 269.5,213.5C 277.851,218.011 286.518,221.844 295.5,225C 305.274,227.873 315.274,229.54 325.5,230C 321.933,236.301 318.766,242.801 316,249.5C 310.453,265.741 310.12,282.074 315,298.5C 316.627,303.062 319.794,305.895 324.5,307C 351.981,310.673 375.314,302.506 394.5,282.5C 397.29,291.538 400.29,300.538 403.5,309.5 Z"/></g>
<g><path style="opacity:1" fill="#19b773" d="M 458.5,274.5 C 460.244,290.21 459.077,305.877 455,321.5C 453.795,325.615 452.295,329.615 450.5,333.5C 420.58,317.679 406.747,292.679 409,258.5C 407.299,254.125 404.133,252.458 399.5,253.5C 401.292,252.691 403.292,252.191 405.5,252C 416.043,244.458 424.876,235.291 432,224.5C 432.891,232.846 433.891,241.18 435,249.5C 438.828,264.831 446.495,277.831 458,288.5C 458.499,283.845 458.666,279.179 458.5,274.5 Z"/></g>
<g><path style="opacity:0.999" fill="#f24444" d="M 403.5,309.5 C 409.497,320.266 417.497,329.433 427.5,337C 422.599,345.772 416.266,353.439 408.5,360C 380.521,380.664 351.187,399.331 320.5,416C 318.737,419.243 318.071,422.743 318.5,426.5C 314.527,428.487 310.527,430.487 306.5,432.5C 303.262,428.912 299.262,427.745 294.5,429C 252.69,449.493 208.69,462.493 162.5,468C 110.909,472.793 64.2424,460.126 22.5,430C 14.2341,423.262 12.4008,415.096 17,405.5C 18.4264,403.234 20.2598,401.568 22.5,400.5C 29.705,403.101 36.705,406.267 43.5,410C 79.5425,424.45 116.876,429.117 155.5,424C 189.605,419.557 222.605,410.89 254.5,398C 302.157,377.015 347.157,351.681 389.5,322C 394.361,317.968 399.028,313.801 403.5,309.5 Z"/></g>
<g><path style="opacity:0.96" fill="#010000" d="M 123.5,367.5 C 124.1,371.516 123.1,375.016 120.5,378C 91.135,390.561 60.4683,396.895 28.5,397C 25.9746,397.424 23.9746,398.59 22.5,400.5C 20.2598,401.568 18.4264,403.234 17,405.5C 12.4008,415.096 14.2341,423.262 22.5,430C 64.2424,460.126 110.909,472.793 162.5,468C 208.69,462.493 252.69,449.493 294.5,429C 299.262,427.745 303.262,428.912 306.5,432.5C 307.029,436.192 306.029,439.358 303.5,442C 252.943,467.907 199.276,482.074 142.5,484.5C 94.2626,484.786 50.9292,470.619 12.5,442C 6.71711,436.739 2.38378,430.572 -0.5,423.5C -0.5,417.833 -0.5,412.167 -0.5,406.5C 3.31807,393.85 11.6514,385.683 24.5,382C 56.2339,381.795 86.7339,375.629 116,363.5C 119.008,363.994 121.508,365.327 123.5,367.5 Z"/></g>
</svg>
